<?xml version="1.0" encoding="UTF-8"?>
<svg id="Layer_1" data-name="Layer 1" xmlns="http://www.w3.org/2000/svg" viewBox="0 0 500 283.25">
  <defs>
    <style>
      .cls-1 {
        fill: #e4d1e6;
      }

      .cls-2 {
        fill: #4776bb;
      }

      .cls-3 {
        font-family: AmbicaseFatface-Poster, 'Ambicase Fatface';
        font-size: 63.21px;
        font-weight: 900;
      }

      .cls-3, .cls-4 {
        fill: #261240;
      }

      .cls-5 {
        fill: #fff;
        stroke: #231f20;
      }

      .cls-5, .cls-6 {
        stroke-miterlimit: 10;
      }

      .cls-7 {
        fill: #3f2f8a;
      }

      .cls-8 {
        fill: #b1bdcd;
      }

      .cls-9 {
        fill: #325493;
      }

      .cls-10 {
        fill: #a94d8f;
      }

      .cls-11 {
        fill: #69499d;
      }

      .cls-12 {
        letter-spacing: -.02em;
      }

      .cls-13 {
        fill: #27245f;
      }

      .cls-14 {
        fill: #69479c;
      }

      .cls-15 {
        fill: #0b7078;
      }

      .cls-6 {
        fill: none;
        stroke: #27245f;
      }

      .cls-16 {
        fill: #898989;
      }
    </style>
  </defs>
  <path class="cls-6" d="M203.1,45.14c2.54-4.52,7.26-8,12.51-8.75,15.01,0,25.52,12.01,34.6,22.83"/>
  <path class="cls-7" d="M362.14,137.68c-3.91-7.31-9.67-13.31-16.55-17.77l-81.99-65.09c-3.02-2.39-7.78-.37-7.6,3.22l5.28,100.49c.02.32.07.62.16.9.22,6.3,1.88,12.66,5.13,18.71,12.56,23.47,44.14,33.44,70.53,22.26,26.39-11.17,37.6-39.25,25.04-62.72Z"/>
  <path class="cls-7" d="M139.9,137.68c3.89-7.31,9.62-13.31,16.46-17.77l81.54-65.09c3-2.39,7.74-.37,7.56,3.22l-5.25,100.49c-.02.32-.07.62-.16.9-.22,6.3-1.87,12.66-5.1,18.71-12.49,23.47-43.9,33.44-70.15,22.26-26.25-11.17-37.4-39.25-24.9-62.72Z"/>
  <rect class="cls-15" x="241.31" y="52.61" width="17.37" height="108.32"/>
  <path class="cls-6" d="M239.54,47.79c-5.53-15.98-23.94-18.72-37.69-11.5"/>
  <path class="cls-6" d="M236.52,41.76s-2.51-.88-1.7,1.77"/>
  <path class="cls-6" d="M233.63,38.59s-2.9-.46-2.54,2.37"/>
  <path class="cls-6" d="M228.53,35.08s-3.45.47-2.3,3.49"/>
  <path class="cls-6" d="M222.79,33.06s-2.94,1.62-1.09,4"/>
  <path class="cls-6" d="M215.93,32.52s-3.21,1.87-.24,3.92"/>
  <path class="cls-6" d="M208.13,33.87s-2.79,4.63,1.69,4.58"/>
  <path class="cls-6" d="M202.29,36.05s-10.06,8.73,1.54,8.68"/>
  <path class="cls-13" d="M195.68,147.58c0,7.47-3.71,14.06-9.34,17.94h0c-3.36,2.32-7.42,3.67-11.77,3.67-11.66,0-21.11-9.68-21.11-21.61s8.93-21.06,20.14-21.58c.32-.01.65-.02.97-.02,11.66,0,21.12,9.68,21.12,21.61Z"/>
  <ellipse class="cls-5" cx="326.85" cy="146.3" rx="21.11" ry="21.61"/>
  <path class="cls-13" d="M211.63,109.08c0,1.02-.11,2.01-.32,2.97-1.32,6.02-6.58,10.52-12.86,10.52-7.28,0-13.18-6.04-13.18-13.49,0-5.82,3.6-10.78,8.65-12.67,1.41-.53,2.94-.82,4.53-.82,7.28,0,13.18,6.04,13.18,13.49Z"/>
  <path class="cls-11" d="M197.54,208.57c0-5.53,1.4-10.77,3.85-15.36l25.73-62.08c.95-2.28,4.13-2.34,5.08-.1l26.38,62.88c.08.2.14.4.17.6,1.71,3.91,2.66,8.25,2.65,12.83-.01,17.76-14.32,32.44-31.96,32.78-17.64.34-31.92-13.78-31.91-31.54Z"/>
  <path class="cls-14" d="M239.58,207.42c-.08-5.64,1.21-10.95,3.57-15.59l24.56-62.82c.9-2.31,4.07-2.31,5.04,0l27.19,64.58c.08.2.15.41.18.61,1.76,4.02,2.77,8.46,2.84,13.13.27,18.11-13.7,32.81-31.2,32.84-17.5.03-31.91-14.63-32.18-32.74Z"/>
  <path class="cls-13" d="M224.48,84.03c0,4.5-3.56,8.15-7.96,8.15s-7.96-3.65-7.96-8.15c0-4.27,3.21-7.77,7.29-8.11.22-.02.45-.03.67-.03,3.43,0,6.35,2.22,7.47,5.33.31.87.49,1.83.49,2.82Z"/>
  <path class="cls-2" d="M195.68,147.58c0,7.47-3.71,14.06-9.34,17.94h0c-2.11.7-4.37,1.09-6.72,1.09-11.58,0-20.97-9.29-20.97-20.74,0-9.38,6.3-17.31,14.95-19.87.32-.01.65-.02.97-.02,11.66,0,21.12,9.68,21.12,21.61Z"/>
  <path class="cls-13" d="M305.08,146.05c0,7.76,3.82,14.61,9.63,18.65h0c3.47,2.41,7.64,3.81,12.13,3.81,12.02,0,21.76-10.05,21.76-22.45s-9.2-21.89-20.76-22.43c-.33-.02-.66-.03-1-.03-12.02,0-21.76,10.05-21.76,22.45Z"/>
  <path class="cls-2" d="M305.08,146.19c0,7.72,3.77,14.53,9.49,18.54h0c2.14.73,4.44,1.12,6.83,1.12,11.75,0,21.29-9.6,21.29-21.44,0-9.7-6.4-17.89-15.18-20.54-.33-.02-.66-.03-.99-.03-11.84,0-21.44,10-21.44,22.33Z"/>
  <path class="cls-2" d="M211.63,109.08c0,1.02-.11,2.01-.32,2.97-1.92,1.35-4.24,2.14-6.75,2.14-6.6,0-11.95-5.48-11.95-12.23,0-2,.47-3.88,1.3-5.54,1.41-.53,2.94-.82,4.53-.82,7.28,0,13.18,6.04,13.18,13.49Z"/>
  <path class="cls-13" d="M288.75,109.33c0,1.02.11,2.01.32,2.97,1.32,6.02,6.58,10.52,12.86,10.52,7.28,0,13.18-6.04,13.18-13.49,0-5.82-3.6-10.78-8.65-12.67-1.41-.53-2.94-.82-4.53-.82-7.28,0-13.18,6.04-13.18,13.49Z"/>
  <path class="cls-2" d="M288.75,109.21c0,1.01.11,2,.32,2.94,1.92,1.34,4.24,2.12,6.75,2.12,6.6,0,11.95-5.42,11.95-12.11,0-1.98-.47-3.84-1.3-5.49-1.41-.52-2.94-.81-4.53-.81-7.28,0-13.18,5.98-13.18,13.36Z"/>
  <path class="cls-2" d="M223.99,81.22c-.56.17-1.16.26-1.78.26-3.21,0-5.88-2.41-6.36-5.55.22-.02.45-.03.67-.03,3.43,0,6.35,2.22,7.47,5.33Z"/>
  <path class="cls-13" d="M275.56,84.03c0,4.5,3.56,8.15,7.96,8.15s7.96-3.65,7.96-8.15c0-4.27-3.21-7.77-7.29-8.11-.22-.02-.45-.03-.67-.03-3.43,0-6.35,2.22-7.47,5.33-.31.87-.49,1.83-.49,2.82Z"/>
  <path class="cls-2" d="M276.05,81.22c.56.17,1.16.26,1.78.26,3.21,0,5.88-2.41,6.36-5.55-.22-.02-.45-.03-.67-.03-3.43,0-6.35,2.22-7.47,5.33Z"/>
  <path class="cls-10" d="M236.72,47.13l-2.93,13.84c-2.65-1.26-4.44-3.69-4.44-6.49,0-3.73,3.2-6.82,7.36-7.35Z"/>
  <path class="cls-10" d="M271.38,54.41c0,2.91-1.94,5.43-4.77,6.64l-2.97-14.03c4.35.38,7.74,3.54,7.74,7.39Z"/>
  <path class="cls-6" d="M294.76,45.47c-3.32-6.52-9.71-10.06-16.92-8.39-6.6,1.53-12.12,5.83-16.74,10.58"/>
  <path class="cls-6" d="M260.96,47.83c4.24-14.84,22.09-19.38,34.63-11.62"/>
  <path class="cls-6" d="M263.67,42s2.34-.9,1.58,1.81"/>
  <path class="cls-6" d="M266.35,38.74s2.69-.47,2.37,2.43"/>
  <path class="cls-6" d="M271.29,35.37s2.95.45,1.97,3.35"/>
  <path class="cls-14" d="M253.53,77.21h-6.67c-8.5,0-14.84-7.82-13.09-16.14l.02-.1,2.93-13.84.38-1.82c2.99-14.14,23.18-14.14,26.17,0l.36,1.71,2.97,14.03v.02c1.76,8.32-4.58,16.14-13.08,16.14Z"/>
  <path class="cls-6" d="M276.58,33.4s2.48,1.52.92,3.76"/>
  <path class="cls-6" d="M282.82,32.72s2.98,1.82.22,3.81"/>
  <path class="cls-6" d="M290.08,33.89s2.6,4.75-1.57,4.71"/>
  <path class="cls-6" d="M295.48,36.09s9.43,9.01-1.45,8.96"/>
  <path class="cls-9" d="M207,34.68s-.8,2.98.99,4c0,0-3.63,2.83-4.87,5.44,0,0-9.37.85-.59-7.43l4.47-2.01Z"/>
  <polygon class="cls-13" points="250.19 252.83 236.89 139.28 263.49 139.28 250.19 252.83"/>
  <rect class="cls-13" x="235.18" y="66.5" width="30.03" height="108.72" rx="9.25" ry="9.25"/>
  <polygon class="cls-9" points="220.33 124.69 235.18 79.38 235.18 170 220.33 124.69"/>
  <polygon class="cls-9" points="280.35 126.18 265.21 172.44 265.21 79.92 280.35 126.18"/>
  <rect class="cls-16" x="243.31" y="45.46" width="2.16" height="13.73"/>
  <rect class="cls-16" x="249.11" y="45.46" width="2.16" height="13.23"/>
  <rect class="cls-16" x="254.91" y="45.46" width="2.16" height="13.73" transform="translate(511.99 104.65) rotate(180)"/>
  <rect class="cls-8" x="29.1" y="151.22" width="441.81" height="71.89" rx="20.89" ry="20.89"/>
  <text class="cls-3" transform="translate(71.57 208.65) scale(.86 1)"><tspan x="0" y="0">MY</tspan><tspan class="cls-12" x="101.2" y="0">S</tspan><tspan x="135.4" y="0">TIC BITES</tspan></text>
  <path class="cls-16" d="M252.73,68.99v76.11c0,1.4-1.14,2.49-2.51,2.49,0,0-.02,0-.03,0s-.02,0-.03,0c-1.38,0-2.51-1.08-2.51-2.49v-76.11c0-1.37,1.09-2.49,2.44-2.49h.2c1.35,0,2.44,1.11,2.44,2.49Z"/>
  <polyline class="cls-16" points="243.31 65.96 243.31 57.7 257.07 57.7 257.07 65.96"/>
  <ellipse class="cls-16" cx="250.19" cy="65.73" rx="6.88" ry="7.04"/>
  <polygon class="cls-1" points="64.83 187.16 56.43 190.51 53.32 199.55 50.21 190.51 41.81 187.16 50.21 183.81 53.32 174.77 56.43 183.81 64.83 187.16"/>
  <ellipse class="cls-8" cx="227.81" cy="162.18" rx="7.85" ry="6.41"/>
  <polygon class="cls-4" points="229.34 153.79 224.97 161.58 233.72 161.58 229.34 153.79"/>
  <polygon class="cls-4" points="229.34 169.37 233.72 161.58 224.97 161.58 229.34 169.37"/>
  <ellipse class="cls-8" cx="327.67" cy="162.18" rx="7.85" ry="6.41"/>
  <polygon class="cls-4" points="327.67 153.79 323.3 161.58 332.05 161.58 327.67 153.79"/>
  <polygon class="cls-4" points="327.67 169.37 332.05 161.58 323.3 161.58 327.67 169.37"/>
  <polygon class="cls-1" points="459.47 187.16 451.07 190.51 447.96 199.55 444.85 190.51 436.44 187.16 444.85 183.81 447.96 174.77 451.07 183.81 459.47 187.16"/>
  <path class="cls-2" d="M235.37,42.98c-.41-1.08.59-.67.59-.67l1.33,2.16-1.92-1.49Z"/>
  <path class="cls-2" d="M234.14,42.05l-2.52-1.58s-.1-1.36,1.92-1.11l1.55,1.73-.96.96Z"/>
  <path class="cls-2" d="M230.47,39.74l-3.69-1.85s-.52-1.53,1.67-2.07l3.56,2.2s-1.41.74-1.54,1.72Z"/>
  <path class="cls-9" d="M226.61,35.02s-1.3,1.03-1.34,2.43l-3.22-.93s-1.37-1.79.68-2.76"/>
  <path class="cls-9" d="M221.05,33.47l-.64,2.58-4.59-.42s-1.74-1.31.34-2.48l4.89.33Z"/>
  <path class="cls-9" d="M214.2,35.88l-4.63,1.87s-3.12.34-.85-3.44l5.42-1.03s-.44,1.66.06,2.6Z"/>
  <path class="cls-9" d="M291.11,34.71s.74,3.05-.93,4.09c0,0,3.37,2.9,4.54,5.56,0,0,8.72.87.55-7.6l-4.16-2.06Z"/>
  <path class="cls-2" d="M265.94,42.25l2.34-1.61s.1-1.39-1.79-1.14l-1.44,1.77.89.98Z"/>
  <path class="cls-2" d="M269.26,39.99l3.44-1.89s.48-1.57-1.56-2.12l-3.32,2.25s1.31.76,1.44,1.76Z"/>
  <path class="cls-9" d="M272.75,35.06s1.23,1.05,1.28,2.49l3.07-.95s1.3-1.83-.65-2.82"/>
  <path class="cls-9" d="M277.9,33.48l.62,2.89,4.46-.47s1.69-1.47-.33-2.79l-4.75.37Z"/>
  <path class="cls-9" d="M284.34,36.18l4.38,1.68s2.9.36.8-3.65l-5.05-1.1s.34,2.07-.13,3.07Z"/>
  <path class="cls-2" d="M264.57,43.35l-1.46,1.28-.04-.15,1-1.8s.92-.49.5.67Z"/>
</svg>